<?xml version="1.0" encoding="utf-8" ?><svg xmlns="http://www.w3.org/2000/svg" xmlns:xlink="http://www.w3.org/1999/xlink" width="1024" height="1024" viewBox="0 0 1024 1024"><path fill="#FFB238" d="M200.771 64.2213C237.082 65.1288 301.134 111.681 327.879 134.978C337.364 143.187 346.591 151.689 355.547 160.473C365.668 170.564 371.989 183.841 386.809 177.44C393.968 174.348 404.678 171.513 412.268 169.528C434.212 163.67 456.617 159.703 479.238 157.668C518.95 154.141 560.218 157.581 599.056 166.38C606.819 168.139 614.577 170.28 622.205 172.554C628.756 174.508 639.287 179.551 645.87 179.216C653.491 178.828 663.677 165.315 668.854 159.987C698.518 129.455 780.049 64.9507 823.147 64.663C832.871 64.598 842.162 67.6578 849.08 74.6649C869.523 95.3711 873.06 189.166 872.257 219.046C871.616 239.456 869.714 259.807 866.561 279.981C864.686 291.848 862.469 303.657 859.913 315.396C858.178 323.365 854.58 335.752 853.255 343.063C852.518 347.135 866.776 367.945 869.57 372.549C879.531 389.319 888.375 406.727 896.044 424.661C924.121 490.554 937.36 561.816 934.824 633.396C934.221 650.56 933.144 667.574 930.618 684.552C930.176 687.525 929.627 690.977 929.609 693.936C933.317 700.044 940.496 704.785 945.875 709.733C969.903 732.161 984.115 763.16 985.424 796.002C985.818 806.475 985.309 817.647 985.66 827.925C986.212 844.088 979.133 845.193 964.835 844.981C959.967 844.909 954.259 844.989 949.31 844.991C930.89 844.983 912.47 844.879 894.052 844.678C890.929 844.625 884.716 844.513 883.81 842.203C879.058 830.078 888.249 827.373 898.232 828.565C900.78 828.869 904.823 828.611 906.101 828.62C919.774 828.729 933.448 828.769 947.122 828.741C951.507 828.751 968.677 829.545 971.462 827.44C974.006 822.607 972.65 811.726 972.745 806.13C973.812 743.617 929.597 694.051 866.8 689.892C842.246 688.266 816.126 684.371 791.63 681.286C709.902 670.735 627.919 662.259 545.761 655.867L472.99 649.579C463.945 648.875 453.493 647.668 444.557 647.438C437.643 646.533 421.267 645.313 414.518 645.522C408.037 649.843 402.391 656.684 395.601 660.95C365.431 679.902 333.616 669.358 314.805 641.372C295.379 667.355 264.499 676.946 234.726 660.309C228.014 656.559 222.395 650.988 216.842 645.7C211.647 652.908 206.722 659.082 199.549 664.489C180.038 679.196 151.308 677.458 133.216 661.077C130.339 664.875 128.358 669.608 125.369 673.678C117.856 683.906 104.397 689.434 92.0091 690.244C88.3347 690.484 80.9822 689.741 77.9464 691.029C75.9685 694.711 71.3844 729.412 70.4555 735.547C66.4679 760.396 62.7412 785.286 59.2763 810.213C57.6299 822.313 55.1388 838.446 54.9941 850.398C57.2029 847.851 60.0339 845.54 62.6305 843.465C95.6961 817.041 143.092 826.1 163.544 863.263C165.424 866.68 169.383 871.385 165.607 875.051C162.96 877.622 158.679 877.62 155.658 875.761C149.849 871.271 146.821 863.207 141.297 857.852C131.929 848.476 119.533 843.183 106.093 843.201C36.5507 843.416 36.6797 942.77 104.552 946.624C111.57 946.681 117.992 945.318 124.565 943.022C134.268 939.634 140.27 933.851 147.396 926.814C155.683 928.863 158.393 926.44 166.096 923.215C181.287 916.855 196.484 911.028 213.324 913.216C220.423 914.343 229.867 914.45 234.901 920.28C236.294 921.893 240.319 931.557 236.514 931.877C229.639 932.455 223.134 930.01 215.825 929.542C203.984 928.784 189.526 928.801 178.801 934.738C173.28 938.679 172.018 957.304 165.13 961.52C161.672 963.636 156.179 963.229 153.479 959.815C151.726 956.668 155.025 947.529 155.969 944.012C153.953 944.926 151.05 946.531 149.239 947.791C118.862 968.917 75.2697 966.21 52.2423 935.382C40.692 919.919 38.0763 902.343 38.5192 882.913C39.0186 861.005 41.9204 839.023 44.9268 817.102C48.9936 786.8 53.5229 756.561 58.5129 726.397C60.7116 712.517 63.2689 698.789 65.2258 684.864C62.6329 681.154 59.7311 678.45 56.4867 675.335C39.643 659.158 38.4601 629.978 53.1023 611.993C62.9079 599.948 74.4718 595.906 89.3853 594.22C89.9942 581.13 90.5942 567.767 92.1595 554.757C99.2585 500.229 115.536 447.296 140.301 398.201C144.539 389.826 149.046 381.59 153.815 373.506C157.609 366.932 169.523 349.467 170.338 343.531C171.085 338.097 164.797 319.046 163.135 311.242C157.834 286.351 155.16 264.535 153.287 239.215C152.127 222.305 151.717 205.352 152.061 188.406C152.742 161.853 157.296 95.2414 174.069 76.1326C181.056 68.1724 190.433 64.9006 200.771 64.2213ZM117.447 604.204C119.399 597.728 121.087 592.666 125 587.193C138.757 567.945 162.057 561.029 184.485 567.483C197.26 571.16 199.528 576.249 209.174 583.795C219.785 566.543 229.537 554.647 250.686 549.593C266.149 546.027 282.396 548.768 295.835 557.208C305.359 563.201 311.257 570.387 317.525 579.484C333.85 562.176 340.999 558.769 364.421 555.692C371.05 530.616 379.312 514.914 402.475 501.041C420.437 490.283 433.99 491.15 453.811 491.339L487.878 491.445L548.698 491.368C563.983 491.299 592.954 490.03 606.773 493.647C625.852 498.641 643.958 514.054 653.178 531.633C656.69 538.198 659.145 545.275 660.453 552.605C661.956 561.252 661.608 571.043 661.621 579.882C661.581 591.998 661.66 604.115 661.856 616.23C661.914 618.766 661.501 622.994 663.876 623.497C672.023 625.223 680.006 624.21 684.828 632.973C687.705 638.203 685.367 647.892 685.422 654.655C701.112 657.019 718.486 658.56 734.389 660.497L843.873 674.209C860.45 676.413 877.697 677.942 894.134 680.739C901.428 681.98 909.425 686.82 916.739 689.019C919.961 677.079 920.984 647.822 921.56 635.174C922.288 619.212 922.135 599.238 921.029 583.136C915.973 512.61 895.303 444.089 860.514 382.532C835.886 339.295 804.224 300.466 766.83 267.639C761.57 262.908 756.117 258.395 750.486 254.111C729.415 238.186 710.662 228.949 719.869 197.812C731.064 159.957 753.176 126.684 778.879 97.133C779.6 96.6808 786.098 90.3348 787.06 89.4078C784.072 91.051 780.592 92.849 777.83 94.763C773.595 96.851 767.796 100.469 763.614 102.943C744.08 114.567 725.478 127.689 707.974 142.19C699.571 149.132 691.71 157.211 683.633 164.15C670.454 175.471 658.703 196.665 638.64 191.543C630.813 189.545 623.324 186.98 615.774 184.83C600.258 180.313 584.479 176.749 568.528 174.158C534.994 169.047 494.025 168.971 460.34 173.482C443.178 175.825 426.213 179.44 409.587 184.298C402.504 186.293 389.827 190.974 383.616 191.824C378.977 192.454 374.254 191.967 369.839 190.405C360.24 186.934 349.665 173.276 342.132 166.203C316.167 141.829 279.966 109.864 247.413 95.0307L246.709 94.7138C244.003 93.1708 241.267 91.6807 238.503 90.2442L245.233 96.997C254.965 108.168 263.712 119.973 272.035 132.241C283.636 149.353 293.379 167.825 300.493 187.251C303.69 195.98 307.288 204.923 306.44 214.392C305.568 224.146 301.374 232.53 293.664 238.648C285.817 244.875 277.753 250.849 269.866 257.027C259.278 265.745 247.612 276.102 237.888 285.781C162.227 361.664 114.9 461.215 103.817 567.799C103.298 573.182 100.95 591.696 104.119 595.585C106.68 598.727 113.722 602.252 117.447 604.204ZM371.733 656.342C395.586 652.392 411.734 629.873 407.824 606.015C403.913 582.156 381.42 565.971 357.555 569.843C333.635 573.724 317.405 596.28 321.325 620.193C325.245 644.106 347.826 660.3 371.733 656.342ZM90.2346 676.501C108.978 676.055 123.823 660.522 123.419 641.778C123.016 623.033 107.515 608.154 88.7699 608.516C69.966 608.879 55.029 624.439 55.434 643.242C55.8391 662.045 71.4324 676.948 90.2346 676.501ZM598.365 646.838C613.958 648.588 629.687 649.782 645.332 651.049C652.91 651.664 662.755 653.069 670.125 653.01C670.684 652.899 672.142 652.787 672.381 652.324C674.013 649.145 674.529 640.26 671.171 638.041C665.436 636.857 646.114 635.368 639.6 634.951C628.372 634.232 613.331 631.951 602.511 631.536C598.031 634.231 598.426 642.051 598.365 646.838ZM488.342 504.747C477.166 504.858 465.99 504.904 454.813 504.884C439.747 504.864 426.619 503.864 412.445 510.694C395.976 518.515 381.741 535.338 378.71 553.51C378.001 557.764 385.983 559.579 388.925 561.13C392.143 562.825 395.316 565.678 399.01 565.538C401.331 563.22 402.155 555.801 403.433 553.185C408.063 543.714 421.199 529.788 431.941 527.502C445.581 524.599 467.121 525.63 481.494 525.606L553.74 525.542C566.259 525.553 582.71 524.92 594.599 527.847C607.269 532.838 616.494 541.004 621.961 553.66C628.554 568.919 624.634 588.27 625.596 604.484C625.834 608.487 623.768 619.245 628.655 620.468C634.573 621.95 642.334 622.022 648.485 622.173L648.647 583.97C648.728 559.613 650.353 542.808 631.391 523.57C623.647 515.649 613.933 509.935 603.247 507.016C592.483 504.148 572.178 504.881 560.363 504.844L510.468 504.684L488.342 504.747ZM170.227 660.666C192.83 659.641 210.323 640.488 209.301 617.885C208.279 595.281 189.128 577.785 166.525 578.805C143.917 579.824 126.417 598.979 127.439 621.587C128.462 644.194 147.619 661.692 170.227 660.666ZM270.751 654.603C296.366 651.053 314.239 627.392 310.649 601.782C307.06 576.173 283.37 558.337 257.767 561.966C232.22 565.588 214.431 589.214 218.013 614.767C221.594 640.319 245.193 658.144 270.751 654.603ZM442.198 539.235C423.206 540.769 410.455 558.201 412.471 576.605C413.08 582.163 414.902 586.67 416.865 591.88C422.45 606.285 421.75 617.062 418.452 631.856C429.209 633.305 447.586 633.738 459.342 634.722C499.925 637.81 540.471 641.359 580.973 645.369C582.566 645.465 584.261 645.799 585.596 645.103C588.476 638.152 583.935 624.837 595.503 619.972C600.664 617.802 607.527 618.902 613.116 619.038L613.094 591.076C613.098 576.07 615.042 559.886 603.296 548.338C592.438 537.665 581.796 539.064 567.561 539.065L539.389 539.092C507.828 539.11 474.638 538.617 443.227 539.199C442.884 539.205 442.541 539.217 442.198 539.235ZM192.091 79.621C185.263 82.5352 181.009 87.2221 178.462 94.119C174.087 105.962 171.995 121.697 170.284 134.146C162.456 191.086 163.49 248.919 175.382 305.228C176.92 312.508 179.126 324.609 181.898 331.142C191.003 316.938 208.671 296.207 220.906 283.808C238.115 265.694 257.338 249.016 277.452 234.187C281.137 231.47 285.776 228.68 288.915 225.268C297.585 214.124 291.092 198.532 286.522 187.112C272.722 154.239 252.801 123.63 227.778 98.2241C221.189 91.5692 205.21 79.6162 195.251 79.3586C194.664 79.3434 192.789 79.5386 192.091 79.621ZM826.497 79.6112C802.016 84.8225 775.25 120.51 761.495 141.512C749.536 159.771 729.312 194.604 731.244 217.257C732.144 227.812 750.636 236.416 759.07 243.428C776.159 257.636 791.939 271.682 807.057 288.151C820.617 303.076 830.286 315.638 842.89 330.911C846.652 314.398 850.775 295.806 853.307 279.101C860.874 228.262 860.74 176.574 852.912 125.776C851.873 119.353 850.771 112.792 849.364 106.437C846.591 93.909 842.668 78.3471 826.497 79.6112Z"/><path fill="#FFB238" d="M507.289 324.666C508.27 324.571 509.254 324.512 510.239 324.489C516.424 324.303 553.445 329.548 553.932 339.514C554.294 346.933 540.515 344.376 532.593 352.588C515.405 370.402 514.721 387.608 532.368 405.648C548.297 422.112 573.112 426.236 593.51 415.81C598.143 413.436 609.433 403.944 613.075 405.047C625.385 408.773 610.788 418.989 607.925 420.944C592.811 431.255 574.189 435.065 556.239 431.519C536.377 427.646 525.097 417.485 514.28 401.425L513.495 400.511C512.644 400.353 512.33 400.212 511.676 401.074C503.952 411.26 496.482 420.331 484.784 426.228C469.332 434.018 449.921 434.855 433.57 429.209C424.582 426.105 411.956 419.71 406.222 411.895C405.242 409.274 407.012 404.991 409.864 404.936C415.427 404.828 421.85 409.964 426.514 412.864C439.447 420.903 454.12 423.287 468.919 419.51C482.4 416.069 494.175 406.432 501.234 394.544C504.969 388.088 507.551 380.577 505.273 373.025C502.257 363.032 494.77 351.572 484.702 347.544C480.803 346.283 476.606 345.866 472.949 343.956C470.758 342.811 469.607 337.507 471.458 336.197C480.211 329.998 496.989 326.026 507.289 324.666ZM496.204 340.177C503.832 346.348 506.943 350.55 512.256 358.463C513.14 357.793 512.887 358.093 513.49 357.176C518.475 350.442 522.333 345.285 529.239 340.18C521.578 337.608 518.561 336.883 510.415 337.192C504.123 337.581 502.137 338.022 496.204 340.177Z"/><path fill="#FFB238" d="M655.975 292.703C676.363 291.852 695.693 295.822 713.384 306.269C717.446 308.667 732.06 316.577 725.372 322.884C720.119 327.838 714.497 320.233 709.939 317.625C696.408 309.882 682.894 305.86 667.377 304.857C651.224 303.166 630.894 308.395 616.588 316.07C612.744 318.132 602.517 326.885 598.722 322.938C592.091 316.042 603.208 310.232 608.205 307.319C623.366 298.481 638.566 294.057 655.975 292.703Z"/><path fill="#FFB238" d="M357.154 292.741C381.082 292.148 402.436 297.136 422.154 310.897C425.692 313.063 429.901 318.543 426.221 322.46C421.789 327.178 413.342 319.284 409.326 317.021C395.192 309.058 383.191 305.712 367.081 304.531C347.632 304.255 334.098 307.474 316.733 316.618C312.608 318.804 308.013 323.586 303.349 324.207C298.128 324.901 296.104 318.221 299.692 314.748C303.251 311.303 306.511 309.558 310.589 307.044C325.428 297.895 339.869 293.704 357.154 292.741Z"/><path fill="#FEFADC" fill-opacity="0.015686275" d="M777.83 94.763C780.592 92.849 784.072 91.051 787.06 89.4078C786.098 90.3348 779.6 96.6808 778.879 97.133C777.527 97.244 777.304 97.5672 776.04 98.2536L775.645 97.8433C776.543 96.8129 777.27 96.0376 777.83 94.763Z"/><path fill="#FEFADC" fill-opacity="0.011764706" d="M238.503 90.2442C241.267 91.6807 244.003 93.1708 246.709 94.7138L247.193 96.2937C246.535 96.5362 245.899 96.7773 245.233 96.997L238.503 90.2442Z"/><path fill="#FFB238" d="M284.547 828.676C290.121 828.403 299.356 828.713 305.139 828.755C314.198 828.82 328.177 828.091 336.512 829.85C341.247 830.852 345.728 832.807 349.683 835.598C357.809 841.512 363.279 850.387 364.912 860.304C368.077 879.249 358.31 897.597 339.636 903.432C335.143 904.836 331.549 905.452 326.857 906.201C334.74 916.279 343.25 925.952 351.211 936.023C354.373 940.024 367.201 953.272 365.83 958.241C363.492 966.712 353.589 963.727 348.984 958.249C342.261 950.252 336.102 941.744 329.66 933.465L316.247 916.353C305.517 902.934 291.825 887.09 321.739 889.656C359.571 892.902 364.306 839.89 318.051 844.648C282.988 848.254 287.621 833.15 287.598 874.924C287.471 894.983 287.558 915.043 287.86 935.101C288.256 979.471 283.553 954.633 268.519 961.51C266.423 961.602 260.675 961.957 259.171 960.868C255.83 957.773 253.866 951 252.06 946.577C238.477 913.322 224.277 879.913 211.545 846.347C209.376 850.535 206.279 859.39 204.516 864.077C200.908 873.756 197.197 883.395 193.382 892.994C186.682 910.037 187.76 911.867 169.016 915.673C169.695 912.651 170.928 909.331 172.101 906.462C181.569 883.314 189.853 859.68 199.261 836.518C199.897 834.954 202.111 831.225 203.429 830.526C208.551 827.809 218.52 827.488 221.429 833.709C226.65 843.584 230.688 854.018 235.004 864.24C242.813 882.836 250.717 901.392 258.715 919.908C262.672 929.321 268.466 944.557 272.824 953.066C271.914 915.589 272.843 877.183 272.946 839.634C272.965 832.582 278.015 829.534 284.547 828.676Z"/><path fill="#FFB238" d="M747.456 828.7C750.8 828.45 754.156 828.425 757.503 828.624C779.156 830.037 797.023 841.764 809.066 859.737C814.497 867.124 818.375 877.575 804.523 876.694C801.097 876.472 799.095 873.086 797.625 870.335C778.94 835.371 727.528 834.002 707.359 868.383C696.703 886.547 698.709 911.445 712.313 927.86C727.638 946.353 751.805 951.166 773.757 942.185C782.329 938.693 788.778 932.747 795.657 926.951L796.166 927.012C802.971 927.757 805.412 926.491 811.491 923.463C820.434 919.009 829.502 915.259 839.41 913.638C849.807 912.095 876.648 911.069 882.893 921.425C884.564 924.147 885.056 927.432 884.256 930.524C883.426 931.533 882.288 932.435 880.98 932.128C863.662 928.056 849.696 926.885 832.059 931.008C815.318 934.92 822.243 970.616 801.425 960.735C797.654 958.945 803.432 948.385 803.279 944.826L802.598 944.202C800.59 944.502 790.613 951.636 786.99 953.525C778.998 957.596 770.368 960.268 761.474 961.424C743.625 963.82 726.784 959.563 712.463 948.604C698.023 937.617 688.614 921.279 686.358 903.274C684.027 884.702 687.995 868.157 699.835 853.601C712.851 837.597 727.459 830.931 747.456 828.7Z"/><path fill="#FFB238" d="M574.672 829.138L575.173 829.117C587.527 828.715 622.21 827.797 632.268 830.344C637.695 831.719 642.725 834.672 646.792 838.486C654.664 845.868 658.902 855.913 659.181 866.647C659.544 876.848 655.741 886.758 648.647 894.097C641.266 901.695 631.125 905.362 620.639 905.542C628.541 914.862 635.758 924.918 643.383 934.484C647.045 939.079 656.462 949.365 658.66 953.882C659.523 955.656 660.035 957.714 659.304 959.628C658.705 961.198 657.438 962.28 655.91 962.896C653.484 963.874 650.451 963.49 648.128 962.394C646.094 961.434 644.395 959.439 642.941 957.752C637.665 951.631 597.8 901.439 596.934 898.621C596.14 896.036 597.167 893.337 598.513 891.154C606.978 886.42 622.032 892.02 632.687 886.956C637.644 884.597 641.468 880.373 643.324 875.205C647.203 864.282 640.574 848.891 630.262 846.089C623.334 844.207 585.384 843.371 580.793 845.8C578.765 849.892 579.511 874.387 579.512 881.106L579.449 937.058C579.447 943.957 579.782 951.687 578.964 958.436C577.725 963.394 565.219 962.905 564.933 957.529C564.056 941.094 564.514 923.891 564.539 907.463L564.533 864.131C564.531 856.274 564.477 848.45 564.699 840.593C564.885 834.009 568.217 830.381 574.672 829.138Z"/><path fill="#FFB238" d="M857 828.59C860.476 828.767 863.566 829.608 866.102 832.084C870.61 836.487 895.173 899.146 899.494 909.481C905.271 923.299 911.524 937.003 917.006 950.934C917.712 952.727 919.251 956.043 919.065 957.939C918.989 958.714 918.138 959.736 917.511 960.188C914.293 962.506 908.869 961.433 905.168 961.046C902.171 956.542 897.422 943.787 895.211 938.316L879.087 898.504C872.02 882.748 865.165 864.537 858.49 848.374C853.955 858.51 838.409 902.424 833.886 907.635C830.073 912.028 822.212 912.384 816.827 912.677C820.682 901.328 828.161 884.762 832.872 873.091L842.922 848.114C845.067 842.795 847.356 836.761 850.256 831.833C851.56 829.616 854.584 829.162 857 828.59Z"/><path fill="#FFB238" d="M390.278 828.72L436.182 828.822C442.531 828.831 448.86 828.471 455.186 828.853C461.018 829.204 461.342 835.644 460.335 840.092C458.709 847.273 448.774 844.117 444.203 844.641C435.496 845.64 399.981 842.686 394.174 846.365C393.38 848.124 392.95 880.956 393.388 883.888C393.532 884.844 393.987 885.725 394.683 886.396C397.692 889.291 413.603 888.192 418.893 888.265C427.463 888.089 435.81 888.184 444.556 888.163C452.766 887.769 459.364 890.139 457.357 899.707C456.771 903.083 453.237 905.629 448.722 905.306C428.219 903.838 404.031 905.811 383.952 903.402C379.385 902.854 378.406 890.402 378.481 885.576C378.719 870.457 378.049 853.726 378.77 838.483C379.103 830.644 383.562 829.328 390.278 828.72Z"/><path fill="#FFB238" d="M482.774 828.721L526.302 828.866C532.285 828.878 538.485 828.345 544.427 828.751C546.749 828.909 549.198 829.174 550.716 831.145C552.312 833.218 552.477 837.842 551.937 840.266C551.535 842.069 550.493 843.463 548.749 844.144C545.328 845.481 539.739 844.637 536.039 844.629C528.44 844.612 493.188 843.217 488.769 846.355C487.776 847.06 487.59 848.079 487.451 849.241C486.931 853.604 486.641 880.906 487.259 884.592C487.425 885.579 487.86 886.523 488.569 887.243C491.757 890.48 503.226 888.91 507.875 888.871C515.233 888.932 539.349 887.491 544.046 890.34C545.729 891.351 546.911 893.021 547.303 894.945C548.146 899.225 545.788 905.798 540.954 905.686C521.932 905.243 502.797 905.832 483.761 905.338C481.731 905.285 478.845 904.627 477.212 903.404C474.709 901.509 473.064 898.694 472.642 895.583C471.845 889.836 472.305 875.542 472.164 869.051C472.311 858.623 471.638 848.07 472.379 837.669C472.856 830.963 476.93 829.307 482.774 828.721Z"/><path fill="#FFB238" d="M383.533 907.614C385.776 907.48 389.524 907.496 391.492 908.614C396.427 911.419 391.614 937.406 393.801 943.786C394.216 944.997 394.75 945.896 396.019 946.344C398.896 947.36 404.332 946.699 407.477 946.707C414.926 946.725 453.531 945.481 457.801 947.934C459.158 948.713 459.968 949.978 460.256 951.511C460.785 954.329 461.138 958.793 459.083 961.051C458.026 962.213 457.076 962.398 455.625 962.542C433.1 962.961 410.367 962.547 387.854 962.657C378.594 962.702 377.73 953.541 377.964 946.519C378.33 935.687 378.106 924.832 378.361 914.013C378.455 910.06 379.849 908.377 383.533 907.614Z"/><path fill="#FFB238" d="M479.664 908.612C481.787 908.826 483.781 908.861 485.438 910.372C491.186 915.613 483.671 940.665 488.635 945.497C491.38 948.168 535.879 946.198 543.321 946.587C545.947 946.724 549.013 947.006 550.854 949.067C552.641 954.644 553.718 960.453 546.704 962.406C536.656 962.498 482.742 964.03 477.282 960.994C475.175 959.822 473.126 957.539 472.589 955.143C471.405 949.852 470.929 914.516 473.181 911.468C474.76 909.332 477.232 909.07 479.664 908.612Z"/><path fill="#FFB238" d="M932.705 849.078C941.598 848.757 941.239 855.337 941.108 861.917C940.907 871.995 940.969 882.137 940.959 892.218L940.956 933.688C940.989 941.366 941.175 949.064 941.002 956.736C940.895 961.452 937.932 962.288 934.039 962.722C926.454 962.176 925.799 957.84 925.786 951.235C925.724 920.319 926.087 889.402 925.74 858.488C925.676 852.778 927.328 850.632 932.705 849.078Z"/><path fill="#F6D4BA" fill-opacity="0.011764706" d="M183.116 914.084L183.693 914.225C182.089 915.505 180.529 915.658 178.505 916.136L177.91 916.291L177.959 915.962L183.116 914.084Z"/></svg>